<?xml version="1.0" encoding="utf-8"?>
<!-- Generator: Adobe Illustrator 27.7.0, SVG Export Plug-In . SVG Version: 6.00 Build 0)  -->
<svg version="1.1" id="Desain" xmlns="http://www.w3.org/2000/svg" xmlns:xlink="http://www.w3.org/1999/xlink" x="0px" y="0px"
	 viewBox="0 0 3453.997 2000" enable-background="new 0 0 3453.997 2000" xml:space="preserve">
<g>
	<defs>
		<rect id="SVGID_1_" x="6.215" width="3442" height="2000"/>
	</defs>
	<clipPath id="SVGID_00000043450385759153846200000005913355096485424787_">
		<use xlink:href="#SVGID_1_"  overflow="visible"/>
	</clipPath>
	<g clip-path="url(#SVGID_00000043450385759153846200000005913355096485424787_)">
		<path fill="#FEDBD2" d="M1084.777-95.91c0,0-133.034,230.635,163.904,284.814c296.938,54.179,400.074-222.067,348.014-318.864
			C1544.631-226.751,1178.361-236.402,1084.777-95.91z"/>
	</g>
	<g clip-path="url(#SVGID_00000043450385759153846200000005913355096485424787_)">
		<path fill="#5C9B90" d="M1609.342,335.849c-176.693,0-224.312-74.194-266.325-139.655
			c-36.011-56.108-70.025-109.104-180.775-109.104c-6.561,0-13.434,0.187-20.429,0.553c-28.525,1.5-55.362,2.261-79.765,2.261
			c-130.447,0.004-211.828-21.696-256.11-68.293c-31.617-33.27-45.412-80.279-42.177-143.713
			c3.427-67.204,98.206-162.261,241.46-242.171c156.429-87.259,331.405-137.305,480.063-137.305
			c82.378,0,155.377,15.262,216.971,45.358c177.089,86.535,294.697,211.43,331.154,351.675
			c23.459,90.234,10.332,177.534-36.955,245.902c-1.766,6.302-15.857,51.592-67.375,97.373
			C1879.226,283.033,1783.284,335.849,1609.342,335.849z M1162.242,79.542c114.873,0,149.969,54.682,187.126,112.575
			c42.971,66.952,87.404,136.185,259.974,136.185c171.569,0,265.85-51.778,314.726-95.215c52.635-46.775,65.139-93.812,65.26-94.282
			l0.17-0.66l0.387-0.558c46.315-66.611,59.18-151.927,36.221-240.234c-35.896-138.079-152.086-261.24-327.166-346.792
			c-60.551-29.588-132.434-44.592-213.654-44.592c-147.411,0-321.047,49.698-476.387,136.349
			C867.86-279.01,774.597-186.389,771.298-121.72c-3.123,61.26,9.998,106.441,40.111,138.13
			c42.761,44.995,122.402,65.949,250.64,65.945c24.27,0,50.975-0.757,79.369-2.25C1148.542,79.731,1155.548,79.542,1162.242,79.542z
			"/>
	</g>
	<g clip-path="url(#SVGID_00000043450385759153846200000005913355096485424787_)">
		<path fill="#FFD280" d="M3070.674,525.081c0,0-82.467,142.976,101.606,176.562c184.081,33.586,248.015-137.662,215.739-197.671
			C3355.745,443.971,3128.692,437.986,3070.674,525.081z"/>
	</g>
	<g clip-path="url(#SVGID_00000043450385759153846200000005913355096485424787_)">
		<path fill="#FDD6AE" d="M2809.467,647.347c0,0,1.479,55.579,64.033,39.379c62.559-16.2,50.133-77.76,29.064-91.469
			C2881.49,581.552,2810.945,612.375,2809.467,647.347z"/>
	</g>
	<g clip-path="url(#SVGID_00000043450385759153846200000005913355096485424787_)">
		<path fill="#FDD6AE" d="M2799.355,747.008c0,0,0.744,27.984,32.244,19.826c31.498-8.155,25.244-39.155,14.635-46.057
			C2835.621,713.875,2800.1,729.396,2799.355,747.008z"/>
	</g>
	<g clip-path="url(#SVGID_00000043450385759153846200000005913355096485424787_)">
		<path fill="#DAF1FD" d="M3009.438,201.585c0,0-412.762,371.389-825.527,84.902C1771.148,0,1358.384,228.582,1358.384,0
			s541.753-324.809,1109.306-285.185C3035.237-245.564,3089.048,23.283,3009.438,201.585z"/>
	</g>
	<g clip-path="url(#SVGID_00000043450385759153846200000005913355096485424787_)">
		<path fill="#79B6FF" d="M3753.693,592.125c0,0-453.391,164.144-674.12-118.861c-220.726-283.004-256.519-311.302-405.657-345.261
			c-149.137-33.958-244.586-254.702-202.826-396.204c41.757-141.502,1097.676-390.551,1318.404,28.298
			C4010.219,178.947,3992.309,439.294,3753.693,592.125z"/>
	</g>
	<g clip-path="url(#SVGID_00000043450385759153846200000005913355096485424787_)">
		<path fill="#5C9B90" d="M2422.826-94.602c0,0-109.467,189.777,134.865,234.36c244.336,44.579,329.197-182.728,286.361-262.378
			C2801.213-202.263,2499.83-210.204,2422.826-94.602z"/>
	</g>
	<g clip-path="url(#SVGID_00000043450385759153846200000005913355096485424787_)">
		<g>
			<path fill="#4D4D4D" d="M2323.301,216.004c0,0,0.486,16.13,18.533,11.487c18.057-4.647,14.395-22.52,8.291-26.518
				C2344.026,196.978,2323.685,205.859,2323.301,216.004z"/>
		</g>
		<g>
			<path fill="#4D4D4D" d="M2311.17,170.062c0,0-0.343,12.869,15.342,8.506c15.684-4.363,13.391-18.515,8.354-21.488
				C2329.82,154.109,2311.98,161.943,2311.17,170.062z"/>
		</g>
		<g>
			<path fill="#4D4D4D" d="M2244.357,155.229c0,0,1.707,14.435,15.618,11.417c13.907-3.014,9.552-19.207,4.39-23.153
				C2259.205,139.534,2243.835,146.193,2244.357,155.229z"/>
		</g>
		<g>
			<path fill="#4D4D4D" d="M2262.924,203.206c0,0-0.428,13.568,16.226,8.903c16.653-4.666,14.295-19.572,8.962-22.686
				C2282.787,186.314,2263.823,194.642,2262.924,203.206z"/>
		</g>
		<g>
			<path fill="#4D4D4D" d="M2186.082,173.843c0,0,1.049,12.367,13.697,9.415c12.646-2.952,9.264-16.764,4.746-20.029
				C2200.008,159.965,2185.916,166.085,2186.082,173.843z"/>
		</g>
		<g>
			<path fill="#4D4D4D" d="M2227.414,250.523c0,0,0.692,14.847,16.885,10.794c16.182-4.053,12.611-20.548,7.05-24.3
				C2245.788,233.266,2227.602,241.192,2227.414,250.523z"/>
		</g>
		<g>
			<path fill="#4D4D4D" d="M2207.58,215.374c0,0,1.055,12.368,13.698,9.416c12.647-2.952,9.265-16.764,4.746-20.029
				C2221.506,201.496,2207.414,207.621,2207.58,215.374z"/>
		</g>
		<g>
			<path fill="#4D4D4D" d="M2150.686,213.477c0,0,1.051,12.367,13.697,9.416c12.648-2.952,9.262-16.764,4.743-20.029
				C2164.607,199.598,2150.516,205.719,2150.686,213.477z"/>
		</g>
	</g>
	<g clip-path="url(#SVGID_00000043450385759153846200000005913355096485424787_)">
		<g>
			<path fill="#5C9B90" d="M3203.977,834.39c0,0-2.518,16.768,21.568,9.209c24.084-7.565,22.871-25.674,15.814-28.932
				C3234.301,811.417,3206.457,823.739,3203.977,834.39z"/>
		</g>
		<g>
			<path fill="#5C9B90" d="M3197.357,788.252c0,0-2.943,13.483,18.051,6.574c20.986-6.91,20.807-21.341,14.906-23.688
				C3224.422,768.794,3199.979,779.654,3197.357,788.252z"/>
		</g>
		<g>
			<path fill="#5C9B90" d="M3114.461,782.801c0,0-0.619,14.814,17.828,9.57c18.451-5.233,16.01-21.484,10.156-24.827
				C3136.59,764.188,3115.555,773.448,3114.461,782.801z"/>
		</g>
		<g>
			<path fill="#5C9B90" d="M3128.943,830.1c0,0-3.195,14.228,19.104,6.854c22.289-7.371,22.17-22.575,15.936-25.03
				C3157.746,809.481,3131.77,821.023,3128.943,830.1z"/>
		</g>
		<g>
			<path fill="#5C9B90" d="M3035.996,810.989c0,0-1.057,12.75,15.762,7.768c16.812-4.979,15.158-18.89,9.994-21.621
				C3056.59,794.409,3037.301,802.915,3035.996,810.989z"/>
		</g>
		<g>
			<path fill="#5C9B90" d="M3074.115,884.832c0,0-2,15.397,19.58,8.73c21.572-6.663,20.197-23.345,13.793-26.426
				C3101.084,864.055,3076.184,875.059,3074.115,884.832z"/>
		</g>
		<g>
			<path fill="#5C9B90" d="M3055.506,851.113c0,0-1.057,12.758,15.758,7.776c16.812-4.982,15.164-18.891,9.998-21.625
				C3076.096,834.537,3056.811,843.046,3055.506,851.113z"/>
		</g>
		<g>
			<path fill="#5C9B90" d="M2982.812,857.68c0,0-1.057,12.754,15.754,7.775c16.82-4.982,15.168-18.894,10.006-21.624
				C3003.406,841.101,2984.113,849.609,2982.812,857.68z"/>
		</g>
	</g>
	<g clip-path="url(#SVGID_00000043450385759153846200000005913355096485424787_)">
		<path fill="#55819B" d="M3264.166-56.051c0,0-82.467,142.976,101.61,176.562c184.077,33.586,248.011-137.662,215.739-197.671
			C3549.24-137.161,3322.185-143.145,3264.166-56.051z"/>
	</g>
	<g clip-path="url(#SVGID_00000043450385759153846200000005913355096485424787_)">
		<g>
			<path fill="#79B6FF" d="M3198.268,1185.919c-73.834-88.73-17.555-137.548,32.096-180.937
				c36.066-31.516,70.127-61.288,55.604-103.49c-16.045-46.617-13.318-86.982,7.895-116.714
				c24.07-33.743,70.945-51.603,135.547-51.603c25.242,0,53.457,2.663,83.852,7.995c72.107,12.659,124.834,49.189,152.477,105.817
				c38.783,79.435,26.68,192.971-32.371,304.011c-34.385,64.671-145.176,116.926-246.971,116.926h-0.01
				C3331.826,1267.924,3254.908,1253.991,3198.268,1185.919z M3303.078,791.329c-18.998,26.627-21.209,63.388-6.408,106.397
				c17.002,49.403-21.562,83.013-58.859,115.607c-50.195,43.86-97.605,85.112-30.846,165.353
				c53.84,64.699,127.285,77.918,179.42,77.918h0.01c98.043,0,204.35-49.562,236.977-110.919
				c57.354-107.853,69.385-217.36,32.193-293.547c-26.359-53.997-74.896-87.548-144.266-99.724
				c-29.75-5.224-57.303-7.872-81.891-7.872C3368.617,744.542,3324.934,760.69,3303.078,791.329z"/>
		</g>
	</g>
	<g clip-path="url(#SVGID_00000043450385759153846200000005913355096485424787_)">
		<path fill="#FFD280" d="M2809.467,647.347c0,0,1.479,55.579,64.033,39.379c62.559-16.2,50.133-77.76,29.064-91.469
			C2881.49,581.552,2810.945,612.375,2809.467,647.347z"/>
	</g>
	<g clip-path="url(#SVGID_00000043450385759153846200000005913355096485424787_)">
		<path fill="#FFD280" d="M2799.355,747.008c0,0,0.744,27.984,32.244,19.826c31.498-8.155,25.244-39.155,14.635-46.057
			C2835.621,713.875,2800.1,729.396,2799.355,747.008z"/>
	</g>
	<g clip-path="url(#SVGID_00000043450385759153846200000005913355096485424787_)">
		<path fill="#FFA5A6" d="M2422.826-94.602c0,0-109.467,189.777,134.865,234.36c244.336,44.579,329.197-182.728,286.361-262.378
			C2801.213-202.263,2499.83-210.204,2422.826-94.602z"/>
	</g>
	<g clip-path="url(#SVGID_00000043450385759153846200000005913355096485424787_)">
		<g>
			<path fill="#FFA5A6" d="M2323.301,216.004c0,0,0.486,16.13,18.533,11.487c18.057-4.647,14.395-22.52,8.291-26.518
				C2344.026,196.978,2323.685,205.859,2323.301,216.004z"/>
		</g>
		<g>
			<path fill="#FFA5A6" d="M2311.17,170.062c0,0-0.343,12.869,15.342,8.506c15.684-4.363,13.391-18.515,8.354-21.488
				C2329.82,154.109,2311.98,161.943,2311.17,170.062z"/>
		</g>
		<g>
			<path fill="#FFA5A6" d="M2244.357,155.229c0,0,1.707,14.435,15.618,11.417c13.907-3.014,9.552-19.207,4.39-23.153
				C2259.205,139.534,2243.835,146.193,2244.357,155.229z"/>
		</g>
		<g>
			<path fill="#FFA5A6" d="M2262.924,203.206c0,0-0.428,13.568,16.226,8.903c16.653-4.666,14.295-19.572,8.962-22.686
				C2282.787,186.314,2263.823,194.642,2262.924,203.206z"/>
		</g>
		<g>
			<path fill="#FFA5A6" d="M2186.082,173.843c0,0,1.049,12.367,13.697,9.415c12.646-2.952,9.264-16.764,4.746-20.029
				C2200.008,159.965,2185.916,166.085,2186.082,173.843z"/>
		</g>
		<g>
			<path fill="#FFA5A6" d="M2227.414,250.523c0,0,0.692,14.847,16.885,10.794c16.182-4.053,12.611-20.548,7.05-24.3
				C2245.788,233.266,2227.602,241.192,2227.414,250.523z"/>
		</g>
		<g>
			<path fill="#FFA5A6" d="M2207.58,215.374c0,0,1.055,12.368,13.698,9.416c12.647-2.952,9.265-16.764,4.746-20.029
				C2221.506,201.496,2207.414,207.621,2207.58,215.374z"/>
		</g>
		<g>
			<path fill="#FFA5A6" d="M2150.686,213.477c0,0,1.051,12.367,13.697,9.416c12.648-2.952,9.262-16.764,4.743-20.029
				C2164.607,199.598,2150.516,205.719,2150.686,213.477z"/>
		</g>
	</g>
	<g clip-path="url(#SVGID_00000043450385759153846200000005913355096485424787_)">
		<g>
			<path fill="#DAF1FD" d="M3203.977,834.39c0,0-2.518,16.768,21.568,9.209c24.084-7.565,22.871-25.674,15.814-28.932
				C3234.301,811.417,3206.457,823.739,3203.977,834.39z"/>
		</g>
		<g>
			<path fill="#DAF1FD" d="M3197.357,788.252c0,0-2.943,13.483,18.051,6.574c20.986-6.91,20.807-21.341,14.906-23.688
				C3224.422,768.794,3199.979,779.654,3197.357,788.252z"/>
		</g>
		<g>
			<path fill="#DAF1FD" d="M3114.461,782.801c0,0-0.619,14.814,17.828,9.57c18.451-5.233,16.01-21.484,10.156-24.827
				C3136.59,764.188,3115.555,773.448,3114.461,782.801z"/>
		</g>
		<g>
			<path fill="#DAF1FD" d="M3128.943,830.1c0,0-3.195,14.228,19.104,6.854c22.289-7.371,22.17-22.575,15.936-25.03
				C3157.746,809.481,3131.77,821.023,3128.943,830.1z"/>
		</g>
		<g>
			<path fill="#DAF1FD" d="M3035.996,810.989c0,0-1.057,12.75,15.762,7.768c16.812-4.979,15.158-18.89,9.994-21.621
				C3056.59,794.409,3037.301,802.915,3035.996,810.989z"/>
		</g>
		<g>
			<path fill="#DAF1FD" d="M3074.115,884.832c0,0-2,15.397,19.58,8.73c21.572-6.663,20.197-23.345,13.793-26.426
				C3101.084,864.055,3076.184,875.059,3074.115,884.832z"/>
		</g>
		<g>
			<path fill="#DAF1FD" d="M3055.506,851.113c0,0-1.057,12.758,15.758,7.776c16.812-4.982,15.164-18.891,9.998-21.625
				C3076.096,834.537,3056.811,843.046,3055.506,851.113z"/>
		</g>
		<g>
			<path fill="#DAF1FD" d="M2982.812,857.68c0,0-1.057,12.754,15.754,7.775c16.82-4.982,15.168-18.894,10.006-21.624
				C3003.406,841.101,2984.113,849.609,2982.812,857.68z"/>
		</g>
	</g>
	<g clip-path="url(#SVGID_00000043450385759153846200000005913355096485424787_)">
		<g>
			<path fill="#79B6FF" d="M2406.508,519.1c4.91,26.175-38.219,14.696-42.518,0C2359.689,504.403,2400.295,486,2406.508,519.1z"/>
		</g>
		<g>
			<path fill="#79B6FF" d="M2316.211,511.553c4.908,26.176-38.219,14.696-42.52,0
				C2269.393,496.856,2309.998,478.453,2316.211,511.553z"/>
		</g>
		<g>
			<path fill="#79B6FF" d="M2363.51,560.609c4.908,26.176-38.219,14.696-42.52,0C2316.691,545.913,2357.297,527.51,2363.51,560.609z
				"/>
		</g>
	</g>
	<g clip-path="url(#SVGID_00000043450385759153846200000005913355096485424787_)">
		<path fill="#FFD280" d="M864.243,1353.954c0,0-1.601-60.396-69.579-42.792c-67.976,17.604-54.481,84.496-31.583,99.393
			C785.982,1425.449,862.636,1391.955,864.243,1353.954z"/>
	</g>
	<g clip-path="url(#SVGID_00000043450385759153846200000005913355096485424787_)">
		<path fill="#FFD280" d="M875.236,1245.658c0,0-0.815-30.409-35.044-21.543c-34.224,8.863-27.434,42.545-15.896,50.048
			C835.82,1281.662,874.421,1264.796,875.236,1245.658z"/>
	</g>
	<g clip-path="url(#SVGID_00000043450385759153846200000005913355096485424787_)">
		<path fill="#DAF1FD" d="M614.923,1724.502c0,0,564.04-269.764,888.224,143.64c324.192,413.411,836.165,291.94,752.826,529.312
			c-83.336,237.371-681,185.179-1255.935-15.338C425.107,2181.604,467.249,1887.309,614.923,1724.502z"/>
	</g>
	<g clip-path="url(#SVGID_00000043450385759153846200000005913355096485424787_)">
		<path fill="#5C9B90" d="M1167.575,2127.369c0,0,118.941-206.217-146.553-254.662c-265.498-48.44-357.715,198.56-311.171,285.109
			C756.405,2244.357,1083.891,2252.988,1167.575,2127.369z"/>
	</g>
	<g clip-path="url(#SVGID_00000043450385759153846200000005913355096485424787_)">
		<g>
			<path fill="#FFA5A6" d="M318.293,1117.902c0,0,2.74-18.22-23.43-10.005c-26.172,8.222-24.855,27.896-17.186,31.438
				C285.341,1142.865,315.603,1129.478,318.293,1117.902z"/>
		</g>
		<g>
			<path fill="#FFA5A6" d="M325.485,1168.039c0,0,3.204-14.652-19.605-7.146c-22.809,7.511-22.612,23.191-16.202,25.741
				C296.078,1189.181,322.638,1177.381,325.485,1168.039z"/>
		</g>
		<g>
			<path fill="#FFA5A6" d="M415.564,1173.961c0,0,0.676-16.097-19.369-10.399c-20.055,5.686-17.396,23.345-11.033,26.979
				C391.517,1194.188,414.378,1184.124,415.564,1173.961z"/>
		</g>
		<g>
			<path fill="#FFA5A6" d="M399.827,1122.564c0,0,3.471-15.46-20.755-7.448c-24.219,8.008-24.086,24.532-17.314,27.196
				C368.537,1144.97,396.763,1132.43,399.827,1122.564z"/>
		</g>
		<g>
			<path fill="#FFA5A6" d="M500.826,1143.33c0,0,1.148-13.853-17.123-8.439c-18.272,5.41-16.474,20.526-10.86,23.493
				C478.453,1161.347,499.416,1152.104,500.826,1143.33z"/>
		</g>
		<g>
			<path fill="#FFA5A6" d="M459.403,1063.094c0,0,2.18-16.734-21.267-9.49c-23.445,7.242-21.956,25.369-14.991,28.719
				C430.108,1085.668,457.166,1073.71,459.403,1063.094z"/>
		</g>
		<g>
			<path fill="#FFA5A6" d="M479.625,1099.73c0,0,1.15-13.863-17.117-8.449c-18.269,5.417-16.479,20.525-10.864,23.5
				C457.256,1117.744,478.215,1108.498,479.625,1099.73z"/>
		</g>
		<g>
			<path fill="#FFA5A6" d="M558.62,1092.597c0,0,1.154-13.86-17.123-8.45c-18.271,5.413-16.474,20.529-10.864,23.496
				C536.247,1110.613,557.21,1101.367,558.62,1092.597z"/>
		</g>
	</g>
	<g clip-path="url(#SVGID_00000043450385759153846200000005913355096485424787_)">
		<path fill="#55819B" d="M253.348,2085.48c0,0,89.606-155.361-110.414-191.855c-200.018-36.498-269.498,149.587-234.427,214.791
			C-56.423,2173.618,190.303,2180.122,253.348,2085.48z"/>
	</g>
	<g clip-path="url(#SVGID_00000043450385759153846200000005913355096485424787_)">
		<path fill="#FFA5A6" d="M463.602,1454.006c0,0,89.61-155.362-110.414-191.855c-200.018-36.498-269.498,149.586-234.429,214.795
			C153.831,1542.143,400.557,1548.647,463.602,1454.006z"/>
	</g>
	<g clip-path="url(#SVGID_00000043450385759153846200000005913355096485424787_)">
		<path fill="#79B6FF" d="M-278.582,1401.658c0,0,492.667-178.364,732.512,129.156c239.851,307.521,278.741,338.271,440.798,375.17
			c162.062,36.899,265.774,276.77,220.401,430.531c-45.373,153.76-1192.764,424.385-1432.613-30.748
			C-557.335,1850.63-537.874,1567.726-278.582,1401.658z"/>
	</g>
	<g clip-path="url(#SVGID_00000043450385759153846200000005913355096485424787_)">
		<path fill="#FFA5A6" d="M1167.575,2127.369c0,0,118.941-206.217-146.553-254.662c-265.498-48.44-357.715,198.56-311.171,285.109
			C756.405,2244.357,1083.891,2252.988,1167.575,2127.369z"/>
	</g>
	<g clip-path="url(#SVGID_00000043450385759153846200000005913355096485424787_)">
		<path fill="#F7EACA" d="M253.348,2085.48c0,0,89.606-155.361-110.414-191.855c-200.018-36.498-269.498,149.587-234.427,214.791
			C-56.423,2173.618,190.303,2180.122,253.348,2085.48z"/>
	</g>
	<g clip-path="url(#SVGID_00000043450385759153846200000005913355096485424787_)">
		<g>
			<path fill="#79B6FF" d="M-31.871,1445.327c-154.229-80.812-248.568-236.729-300.553-353.298
				c-56.193-125.999-76.38-234.506-76.576-235.588l-0.472-2.574l1.822-1.977c6.055-6.564,150.033-160.715,304.745-160.715
				c98.101,0,177.331,62.159,235.486,184.756c91.277,192.413,96.558,378.122,14.127,496.761
				c-36.323,52.284-86.212,83.498-133.459,83.498C-2.931,1456.191-18.112,1452.539-31.871,1445.327z M-396.833,857.173
				c3.415,17.152,24.514,116.718,75.43,230.817c51.258,114.873,144.104,268.44,295.311,347.674
				c11.971,6.273,25.21,9.453,39.342,9.453c43.225,0,89.409-29.326,123.541-78.457c30.061-43.268,117.819-206.202-15.026-486.236
				C65.681,762.196-9.907,702.25-102.904,702.25C-243,702.25-379.409,839.073-396.833,857.173z"/>
		</g>
	</g>
	<g clip-path="url(#SVGID_00000043450385759153846200000005913355096485424787_)">
		<path fill="#FFD280" d="M1084.777-95.91c0,0-133.034,230.635,163.904,284.814c296.938,54.179,400.074-222.067,348.014-318.864
			C1544.631-226.751,1178.361-236.402,1084.777-95.91z"/>
	</g>
	<g clip-path="url(#SVGID_00000043450385759153846200000005913355096485424787_)">
		<g>
			<path fill="#79B6FF" d="M1341.211,197.212c-37.275-58.078-69.469-108.238-179.187-108.238c-6.53,0-13.37,0.187-20.327,0.553
				c-28.575,1.502-55.443,2.263-79.868,2.263c-130.999,0-212.817-21.888-257.477-68.884
				c-31.991-33.664-45.954-81.128-42.692-145.106c3.461-67.836,98.618-163.502,242.423-243.721
				c156.703-87.411,332.013-137.544,480.984-137.544c82.665,0,155.944,15.326,217.795,45.55
				c177.596,86.782,295.557,212.107,332.156,352.895c23.57,90.664,10.412,178.405-37.053,247.194
				c-2.16,7.518-16.771,52.574-67.852,97.966c-50.1,44.523-146.455,97.597-320.991,97.597
				C1431.401,337.736,1383.487,263.08,1341.211,197.212z M1009.6-356.036c-140.485,78.364-233.369,170.377-236.634,234.412
				c-3.095,60.712,9.854,105.437,39.593,136.73c42.375,44.594,121.584,65.363,249.27,65.363c24.226,0,50.896-0.756,79.271-2.248
				c7.16-0.376,14.199-0.567,20.924-0.567c115.905,0,151.271,55.105,188.712,113.445c42.7,66.526,86.848,135.316,258.387,135.316
				c170.446,0,264.208-51.218,312.846-94.184c52.529-46.4,65.191-93.432,65.312-93.892l0.254-0.992l0.582-0.838
				c45.998-66.15,58.764-150.916,35.945-238.682c-35.758-137.538-151.592-260.265-326.168-345.572
				c-60.293-29.461-131.899-44.4-212.828-44.4C1337.968-492.146,1164.667-442.534,1009.6-356.036z"/>
		</g>
	</g>
	<g clip-path="url(#SVGID_00000043450385759153846200000005913355096485424787_)">
		<path fill="#F7EACA" d="M3264.166-56.051c0,0-82.467,142.976,101.61,176.562c184.077,33.586,248.011-137.662,215.739-197.671
			C3549.24-137.161,3322.185-143.145,3264.166-56.051z"/>
	</g>
	<g clip-path="url(#SVGID_00000043450385759153846200000005913355096485424787_)">
		<g>
			<path fill="#79B6FF" d="M1369.938,2162.021l-0.492-0.649c-1.835-2.192-45.261-54.731-75.564-127.73
				c-40.483-97.523-36.98-184.685,10.136-251.876c52.802-75.303,169.525-120.309,312.236-120.309
				c142.782,0,271.215,45.857,335.19,119.727c73.121,84.434,195.324,84.419,303.139,84.427
				c85.322,0.011,165.906-0.022,209.814,42.21c40.762,39.205,78.434,82.631,78.066,134.99
				c-0.361,51.864-36.432,109.213-116.967,184.544c-78.703,73.618-267.855,123.589-470.678,123.589c-0.025,0-0.041,0-0.07,0
				C1709.861,2350.943,1496.702,2281.766,1369.938,2162.021z M1314.094,1788.609c-106.34,151.654,57.543,354.742,64.571,363.329
				c124.545,117.468,334.462,183.911,576.085,183.911c0.016,0,0.057,0,0.07,0c199.92,0,385.691-47.244,462.268-118.876
				c77.867-72.833,112.744-126.234,113.076-174.447c0.271-38.558-21.256-74.938-74.293-125.947
				c-40.334-38.794-118.514-38.72-201.289-38.728c-110.449-0.007-235.637,0.023-312.436-88.66
				c-61.703-71.252-186.578-115.492-325.891-115.492C1479.623,1673.699,1363.84,1717.662,1314.094,1788.609z"/>
		</g>
	</g>
	<g clip-path="url(#SVGID_00000043450385759153846200000005913355096485424787_)">
		<g>
			<path fill="#4D4D4D" d="M398.17,1379.467c-1.203,2.303-29.866,56.813-39.094,94.582c-3.217,13.098-6.847,23.088-10.35,32.765
				c-3.67,10.12-7.12,19.671-9.539,31.354c-1.966,9.507-3.031,19.604-3.285,30.889c-0.951,43.39,9.843,76.769,10.293,78.158
				c0.166,0.476,0.483,0.788,0.776,1.139c-19.701,20.051-43.129,45.681-65.004,74.021c0.032-26.154-0.291-106.66-5.467-133.111
				c-0.949-4.799-0.91-16.134,4.601-42.852c10.88-52.715,35.619-129.334,35.862-130.107c0.593-1.812-0.005-3.766-1.417-4.662
				c-1.428-0.913-3.278-0.541-4.418,0.903c-1.861,2.333-45.535,57.507-57.626,97.889c-3.923,13.067-8.302,23.857-12.538,34.302
				c-5.498,13.523-10.687,26.297-13.896,41.848c-1.941,9.445-3.007,19.152-3.247,29.673
				c-0.986,43.131,43.296,105.466,50.823,115.747c-5.651,7.621-11.153,15.407-16.39,23.301
				c-8.194,12.353-17.152,25.184-26.73,38.248c-1.562-18.248-8.395-59.209-37.415-111.232
				c-23.692-42.438-23.81-109.799-18.304-142.287c3.569-21.219,4.347-34.945,2.184-38.649c-0.699-1.209-1.97-1.839-3.278-1.625
				c-1.31,0.218-2.441,1.23-2.94,2.638c-0.212,0.639-5.62,15.961-10.219,38.223c-2.058,10.02-3.648,19.907-4.695,29.393
				l-4.03,36.598c-0.169,2.48-3.65,56.998,8.231,105.262c10.502,42.74,50.94,82.257,62.268,92.674
				c-11.396,15.105-23.673,30.399-36.8,45.598c-5.882-12.457-21.4-43.662-41.467-71.404
				c-25.518-35.229-52.115-75.055-55.946-103.238c-3.984-29.062-6.674-38.975-6.792-39.391c-0.446-1.629-1.811-2.698-3.352-2.599
				c-1.55,0.085-2.902,1.308-3.364,2.992c0,0-0.837,3.129-1.928,8.413c-4.04,19.561-11.383,68.355,7.577,98.91
				c19.414,31.301,65.656,101.629,97.127,115.576c-6.213,6.958-12.55,13.871-19.109,20.707c-0.781,0.243-1.485,0.773-2.001,1.551
				c-0.201,0.325-0.294,0.683-0.416,1.033c-12.729,13.122-26.123,25.88-40.122,38.122c-3.168-7.237-15.4-33.862-32.86-57.717
				c-20.425-27.841-38.051-75.269-37.13-88.108c1.045-14.807,1.177-28.917,1.177-29.072c0.022-1.86-1.111-3.419-2.721-3.74
				c-1.61-0.32-3.254,0.682-3.967,2.406c-0.155,0.381-3.724,9.166-6.463,22.439c-3.352,16.263-5.635,40.455,2.535,63.307
				c12.957,36.288,41.751,80.174,72.559,96.318c-6.554,5.568-13.229,10.982-20.06,16.241c-0.103,0.077-0.234,0.062-0.345,0.158
				c-0.101,0.093-0.169,0.226-0.263,0.328c-36.94,28.479-77.582,52.454-121.751,67.667l1.719,7.591
				c43.553-14.991,83.708-38.329,120.316-66.101c10.917,37.589,51.305,78.343,87.283,100.229
				c39.958,24.293,91.246,14.045,93.42,13.595c1.684-0.354,2.967-2.02,3.06-3.962c0.07-1.931-1.096-3.57-2.766-3.869
				c-0.159-0.041-15.568-2.882-31.932-4.838c-15.883-1.88-64.203-33.58-88.239-60.673c-19.411-21.882-42.762-39.933-52.369-47.019
				c22.035-17.404,42.755-36.295,61.971-56.01c8.459,11.188,36.133,47.924,45.76,63.509c11.934,19.273,69.892,46.031,120.537,49.757
				c39.32,2.919,39.855,0.328,40.666-3.57c0.21-1.051-0.017-2.488-0.516-3.357c-0.595-1.035-1.833-3.184-13.43-5.436
				c-14.361-2.79-78.286-26.876-121.768-62.508c-32.975-27.012-55.113-40.334-64.527-45.496
				c6.708-7.061,13.213-14.195,19.551-21.382c0.986-0.125,1.933-0.578,2.576-1.532c0.434-0.656,0.646-1.412,0.7-2.175
				c6.075-6.998,12.01-14,17.736-21.021c5.286,8.454,24.346,36.391,55.207,52.34c35.571,18.396,86.288,30.532,89.724,30.377
				c2.316-0.125,2.608-0.113,31.53,0.926l1.953,0.08c31.497,1.154,96.451-22.479,99.198-23.492c1.684-0.611,2.784-2.518,2.576-4.434
				c-0.203-1.941-1.627-3.357-3.359-3.32c-0.394,0.004-38.788,0.727-60.81,3.306c-21.427,2.507-79.148-8.899-111.091-24.47
				c-28.022-13.652-84.666-33.733-98.933-38.73c6.057-7.599,11.868-15.152,17.503-22.671c0.31-0.324,0.606-0.645,0.811-1.079
				c10.449-13.993,20.17-27.754,29.08-41.023c8.286,2.934,52.006,18.864,78.142,38.074c26.21,19.281,61.271,10.467,89.436,3.376
				c5.57-1.403,10.952-2.745,16.028-3.833c30.992-6.654,111.531-43.094,114.947-44.648c1.59-0.727,2.567-2.594,2.322-4.474
				c-0.245-1.868-1.653-3.21-3.337-3.181c-1.203,0.012-120.633,1.969-148.928,3.181c-15.087,0.663-33.245-1.986-49.268-4.312
				c-14.278-2.078-26.612-3.885-34.622-3.121c-12.832,1.227-44.028,6.776-58.218,9.355c14.145-20.754,29.903-40.632,45.454-58.641
				c6.081,5.498,26.835,22.465,47.279,18.3c5.494-1.105,13.803-2.417,23.627-3.979c29.97-4.758,75.264-11.937,97.638-22.605
				c29-13.814,79.759-47.041,81.906-48.44c1.527-1.017,2.237-3.073,1.688-4.894c-0.559-1.813-2.204-2.838-3.915-2.41
				c-0.295,0.077-29.559,7.314-60.232,6.681c-17.075-0.347-42.819,8.841-67.724,17.74c-22.566,8.06-43.877,15.662-57.394,15.96
				c-18.999,0.402-39.017,6.272-51.367,10.606c25.221-28.019,48.562-50.288,61.777-62.411c5.64-4.813,41.329-35.002,70.582-52.23
				c33.225-19.568,53.241-34.839,84.021-73.537c30.141-37.901,47.754-58.084,47.923-58.287c1.17-1.334,1.418-3.369,0.589-4.92
				c-0.825-1.529-2.504-2.16-4.064-1.529c-55.948,22.929-82.435,48.945-103.708,69.844c-7.376,7.238-14.34,14.074-21.599,19.809
				c-28.093,22.181-76.133,91.473-79.175,95.891c-6.265,5.764-14.521,13.562-24.053,22.996
				c6.197-14.387,18.245-44.385,21.879-67.767c2.13-13.628,2.768-30.646,3.453-48.673c0.877-23.331,1.871-49.765,6.403-72.978
				c7.934-40.507,16.31-66.716,16.386-66.97c0.599-1.916-0.131-4.043-1.749-4.846C401.08,1376.905,399.122,1377.68,398.17,1379.467z
				 M320.462,1692.877c10.751-4.068,33.75-11.771,54.709-12.209c14.542-0.324,36.336-8.107,59.425-16.352
				c24.34-8.686,49.514-17.674,65.424-17.35c15.811,0.32,30.997-1.322,42.377-3.076c-17.836,11.242-45.543,28.205-63.74,36.884
				c-21.497,10.229-66.224,17.331-95.825,22.026c-9.942,1.584-18.339,2.914-23.904,4.046
				C344.159,1709.847,328.265,1699.164,320.462,1692.877z M218.238,1839.604c20.812,7.389,66.675,24.05,90.812,35.812
				c33.678,16.422,92.086,27.68,114.508,25.056c9.544-1.128,22.247-1.884,33.529-2.388c-21.997,6.824-52.788,15.116-70.873,14.457
				l-1.955-0.07c-29.49-1.068-29.49-1.068-32.07-0.93c-3.439-0.271-52.278-11.957-86.594-29.694
				C242.953,1870.143,226.679,1851.139,218.238,1839.604z M174.401,1896.657c11.656,7.274,29.459,19.429,52.43,38.256
				c38.11,31.213,91.805,53.796,115.513,61.339c-4.164-0.181-9.204-0.475-15.306-0.932c-48.076-3.546-104.649-29.021-115.531-46.613
				C203.986,1936.549,186.293,1912.533,174.401,1896.657z M98.148,1955.934c10.985,8.365,30.522,24.236,47.054,42.869
				c23.463,26.437,67.333,55.635,87.511,61.74c-16.307-0.943-35.597-4.643-52.374-14.84
				C147.498,2025.729,110.879,1989.836,98.148,1955.934z M106.037,1915.278c-26.55-17.851-50.728-56.15-62.207-88.259
				c-5.883-16.502-5.823-33.889-4.002-47.937c1.717,19.159,19.282,63.013,38.542,89.287
				C90.655,1885.16,100.459,1903.77,106.037,1915.278z M178.735,1850.918c-30.388-15.85-77.082-88.393-91.664-111.893
				c-15.041-24.236-11.831-61.98-8.223-83.737c0.939,5.562,2.065,12.747,3.307,21.831c4.087,29.982,31.289,70.836,57.359,106.857
				C157.652,1809.028,172.036,1837.064,178.735,1850.918z M188.761,1686.969c28.302,50.708,34.305,90.84,35.827,108.034
				c-14.025-13.532-47.595-48.99-56.594-85.606c-11.551-46.93-7.885-101.794-7.855-102.351l4.321-36.347
				c1.015-9.194,3.173-18.672,5.179-28.416c0.011-0.029,0.017-0.081,0.026-0.107C162.356,1577.561,164.545,1643.58,188.761,1686.969
				z M274.928,1719.277c-13.637-19.882-44.865-69.27-44.085-103.24c0.227-9.968,1.234-19.147,3.069-28.043
				c3.044-14.737,8.078-27.131,13.411-40.268c4.321-10.632,8.781-21.636,12.817-35.116c7.746-25.848,29.965-59.239,43.995-78.759
				c-8.163,26.584-22.319,74.528-29.874,111.145c-4.743,22.943-6.257,38.122-4.64,46.381
				C274.392,1615.662,274.906,1690.338,274.928,1719.277z M402.047,1598.035c17.064-23.213,43.745-57.66,61.326-71.527
				c7.581-5.992,14.693-12.983,22.222-20.376c18.923-18.581,42.045-41.292,87.151-62.091c-8.24,9.82-20.978,25.262-37.434,45.939
				c-29.997,37.725-49.51,52.594-81.887,71.676C436.036,1571.89,416.465,1586.594,402.047,1598.035z M342.765,1795.924
				c-20.342-14.98-50.19-27.689-67.504-34.4c15.669-2.812,39.722-6.947,50.261-7.941c7.249-0.693,19.83,1.139,33.141,3.073
				c16.289,2.37,34.746,5.052,50.418,4.378c21.311-0.914,94.605-2.252,129.726-2.853c-26.212,11.425-74.049,31.582-95.574,36.203
				c-5.141,1.102-10.6,2.469-16.246,3.896C398.698,1805.391,366.607,1813.454,342.765,1795.924z M388.13,1416.255
				c-2.209,9.22-4.584,19.948-6.935,31.965c-4.648,23.898-5.658,50.712-6.55,74.366c-0.674,17.759-1.295,34.516-3.35,47.612
				c-3.455,21.875-14.86,50.582-20.972,64.884c-3.132-12.654-8.013-37.385-7.402-66.262c0.247-10.717,1.244-20.283,3.098-29.25
				c2.283-11.029,5.642-20.275,9.189-30.078c3.587-9.897,7.306-20.127,10.624-33.711
				C370.3,1457.532,379.732,1434.678,388.13,1416.255z"/>
		</g>
	</g>
	<g clip-path="url(#SVGID_00000043450385759153846200000005913355096485424787_)">
		<g>
			<g>
				<path fill="#4D4D4D" d="M3276.824-48.622c32.367,18.71,52.746,43.249,60.576,72.959c9.803,37.172-2.59,72.169-9.857,88.134
					c67.309-26.443,119.613-17.479,152.256,25.357c35.256,46.271,37.223,117.309,32.625,144.465
					c-8.98,53.377-62.887,95.79-65.184,97.565c-1.086,0.864-2.582,1.026-3.814,0.411c-1.244-0.582-2.059-1.835-2.092-3.217
					c-0.012-0.604-1.553-60.553-19.742-88.864c-6.264-9.736-12.641-15.185-18.406-15.78c-3.385-0.341-5.971,1.067-7.445,2.163
					c3.732,13.792,21.646,86.367,1.164,139.788c-22.449,58.496-106.607,84.721-110.189,85.814c-1.338,0.417-2.805,0.029-3.762-1.026
					c-0.951-1.037-1.223-2.522-0.703-3.831c23.945-60.202,34.271-102.499,32.506-133.034l-0.377-6.628
					c-1.459-26.326-3.912-70.43-13.553-79.833c-5.273-5.161-13.215-5.323-18.949-0.645c-3.973,3.237-6.479,8.278-7.082,14.193
					c-0.668,6.486,1.613,15.175,4.469,26.151c5.107,19.509,12.068,46.229,9.695,84.467c-3.795,60.342-32.219,106.056-33.428,107.973
					c-0.291,0.45-0.662,0.838-1.102,1.124c-35.363,22.944-90.555,19.115-92.887,18.938c-1.438-0.216-2.572-0.964-3.104-2.253
					c-0.535-1.285-0.295-2.744,0.598-3.792c54.359-63.134,52.682-148.187,49.439-181.821c-2.285-23.784-8.133-38.445-15.607-39.203
					c-3.441-0.358-7.875,2.348-12.426,7.621c-8.145,9.386-6.916,17.912-3.947,38.565c2.076,14.448,4.932,34.257,5.41,63.016
					c1.23,70.714-51.242,109.445-53.869,111.308c-23.721,12.951-52.551,13.243-72.572,11.21
					c-20.537-2.085-35.484-6.832-36.096-7.029c-1.342-0.442-2.328-1.61-2.523-3.007c-0.174-1.421,0.479-2.808,1.676-3.576
					c41.02-26.229,79.854-105.235,82.832-151.537c1.654-25.317-3.373-34.905-8.617-35.451c-3.389-0.341-7.326,2.403-9.529,5.102
					c-1.887,2.311-1.795,4.07-1.264,9.29c0.84,8.17,2.256,21.854-8.516,49.117c-17.008,42.967-41.572,80.049-41.957,80.581
					c-20.08,26.602-35.635,36.69-53.645,34.851c-10.506-1.056-21.004-5.913-34.275-12.06c-4.691-2.172-9.736-4.499-15.174-6.851
					c-41.633-17.897-64.123-15.765-64.225-15.752c-1.225,0.147-2.393-0.323-3.189-1.244c-0.787-0.91-1.094-2.163-0.787-3.322
					l22.637-87.523c-2.387-8.233-16.229-60.844,8.494-94.119c27.801-37.43,84.275-42.283,115.475-41.863
					c26.99,0.369,44.277-7.26,51.43-14.512c2.17-2.198,4.721-5.677,4.625-9.792c-0.174-6.668-14.107-9.085-22.391-9.933
					c-12.787-1.299-28.549-0.783-39.299-0.282c-29.148,1.371-115.375,53.7-116.248,54.227c-1.023,0.617-2.281,0.717-3.383,0.238
					c-1.08-0.481-1.871-1.456-2.107-2.616c-8.91-43.203,27.336-91.275,28.885-93.303c0.258-0.341,0.566-0.63,0.932-0.851
					c1.551-0.999,38.402-24.316,86.107-34.569c11.199-2.419,22.18-3.016,33.598-1.857c12.193,1.249,23.281,4.254,35.016,7.446
					c12.123,3.283,24.621,6.678,38.846,8.115c6.646,0.689,13.121,0.886,19.766,0.622c18.422-0.715,30.697-6.314,31.303-14.274
					c0.74-10.079-16.23-23.651-50.166-30.1c-62.615-11.866-175.553,36.185-176.629,36.654c-1.379,0.593-2.967,0.276-4.035-0.768
					c-1.059-1.047-1.375-2.637-0.793-4.026c37.047-88.487,115.916-124.983,116.721-125.337c0.525-0.243,1.107-0.347,1.68-0.319
					c0,0,4.434,0.219,11.822,0.965c13.756,1.396,34.869,4.336,57.281,10.337c16.344,4.371,42.041,9.734,62.629,11.826
					c26.986,2.746,29.604-1.627,29.625-1.669c0.074-0.146-0.025-1.435-2.307-4.107c-15.674-18.188-95.479-34.931-124.92-39.849
					c-1.348-0.211-2.469-1.198-2.881-2.501c-0.42-1.31-0.074-2.732,0.902-3.707c2.51-2.524,62.686-61.545,142.207-53.447
					C3236.24-66.95,3257.039-60.051,3276.824-48.622z M3205.227,25.619c4.006,4.634,5.092,8.763,3.271,12.275
					c-2.156,4.131-8.291,8.483-36.889,5.583c-20.961-2.142-47.146-7.594-63.768-12.057c-21.941-5.864-42.625-8.737-56.117-10.115
					c-5.225-0.536-8.918-0.776-10.531-0.877c-7.924,3.84-73.445,37.505-108.531,112.85c27.934-11.136,117.537-44.185,172.398-33.644
					c40.131,7.627,57.098,24.501,56.109,37.856c-0.914,12.286-15.248,20.174-38.318,21.057c-7.006,0.276-13.809,0.068-20.803-0.649
					c-14.82-1.501-27.631-4.967-40.023-8.347c-11.447-3.108-22.248-6.037-33.834-7.21c-10.639-1.089-20.873-0.525-31.309,1.719
					c-43.271,9.301-78.354,30.273-83.152,33.23c-3.678,4.997-32.141,45.219-27.969,81.633
					c18.787-11.186,87.799-51.203,115.061-52.486c10.963-0.514,27.094-1.043,40.371,0.309c0.014,0.004,0.021,0.01,0.055,0
					c7.131,0.73,28.568,2.954,28.922,17.048c0.113,5.305-2.197,10.528-6.744,15.122c-10.666,10.784-31.873,17.042-56.748,16.697
					c-29.801-0.407-83.627,4.102-109.479,38.898c-24.082,32.413-7.256,88.043-7.078,88.58c0.213,0.66,0.229,1.356,0.051,2.006
					l-21.676,83.81c9.158,0.177,30.203,2.443,62.777,16.465c5.512,2.362,10.598,4.719,15.355,6.92
					c12.654,5.851,22.666,10.494,31.943,11.434c11.029,1.124,24.381-1.974,46.918-31.816c0.24-0.357,24.41-36.776,41.107-79.022
					c10.102-25.602,8.879-37.681,8.035-45.685c-0.523-5.297-1.01-9.885,2.898-14.67c3.27-3.989,9.402-8.421,15.957-7.754
					c8.152,0.837,17.406,8.998,15.191,43.227c-2.975,45.85-38.48,121.18-79.695,152.661c6.209,1.513,15.879,3.554,27.225,4.7
					c18.977,1.928,46.25,1.71,67.93-10.086c0.52-0.372,51.613-38.209,50.449-104.988c-0.486-28.314-3.287-47.848-5.357-62.109
					c-3.004-20.97-4.658-32.506,5.66-44.422c6.367-7.319,12.662-10.726,18.713-10.105c8.188,0.824,18.668,9.447,22.166,45.792
					c3.238,33.559,4.934,116.95-46.377,181.522c15.908,0.214,54.352-1.142,80.336-17.595c3.525-5.887,28.486-49.305,31.902-103.836
					c2.312-37.085-4.49-63.136-9.439-82.156c-3.072-11.712-5.471-20.956-4.689-28.737c0.795-7.867,4.236-14.68,9.738-19.149
					c8.561-6.989,20.836-6.622,28.705,1.061c10.818,10.551,13.535,44.6,15.768,84.694l0.373,6.607
					c1.775,30.782-7.529,70.701-30.098,128.724c21.014-7.796,80.643-33.428,98.074-78.849c21.336-55.668-1.732-136.503-1.98-137.323
					c-0.338-1.181-0.055-2.453,0.723-3.379c0.244-0.282,5.896-6.858,15.117-5.922c8.188,0.822,16.211,7.27,23.824,19.115
					c15.518,24.14,19.564,67.607,20.578,85.138c14.025-12.369,49.996-47.542,56.881-88.3c4.23-25.081,2.236-94.859-31.248-138.799
					c-32.057-42.075-84.338-48.727-152.693-19.292c-1.451,0.654-3.143,0.258-4.201-0.923c-1.035-1.191-1.209-2.926-0.408-4.291
					c0.268-0.45,25.943-44.935,13.664-91.567c-7.33-27.727-26.537-50.765-57.152-68.458c-18.895-10.921-38.709-17.496-58.904-19.552
					c-62.783-6.39-114.449,32.422-130.852,46.435C3108.389-10.805,3187.582,5.099,3205.227,25.619z"/>
			</g>
		</g>
		<g>
			<g>
				<path fill="#4D4D4D" d="M3136.947,189.626c-2.016-0.206-3.814,1.253-4.012,3.276c-0.215,2.01,1.252,3.811,3.271,4.021
					c10.979,1.1,27.523,14.783,26.932,20.526l0,0c-0.027,0.316-0.148,1.208-2.514,1.982c-2.064,0.673-6.174,1.312-14.041,0.511
					c-2.012-0.207-3.811,1.262-4.014,3.272c-0.213,2.023,1.266,3.814,3.277,4.011c7.439,0.765,13.008,0.488,17.043-0.823
					c6.033-1.975,7.312-5.99,7.533-8.211c0.014-0.009,0.014-0.009,0.014-0.009C3171.58,206.884,3150.844,191.04,3136.947,189.626z"
					/>
			</g>
		</g>
		<g>
			<g>
				<path fill="#4D4D4D" d="M3347.07,196.899c11.959,13.898,11.568,27.766,7.219,36.12c-3.254,6.223-8.811,9.732-14.52,9.145
					c-3.607-0.361-6.916-2.331-9.6-5.675c-12.076-15.131-17.504-36.284-17.725-37.174c-0.15-0.65-0.137-1.336,0.059-1.972
					c1.578-5.187,6.758-13.725,16.17-12.767C3334.412,185.158,3340.43,189.184,3347.07,196.899z M3335.916,231.913
					c3.723,4.679,8.965,3.264,11.859-2.296c3.258-6.219,3.305-16.808-6.262-27.922c-6.578-7.65-11.02-9.561-13.588-9.821
					c-4.605-0.47-7.197,4.601-8.07,6.696C3321.086,202.967,3326.268,219.839,3335.916,231.913z"/>
			</g>
		</g>
		<g>
			<g>
				<path fill="#4D4D4D" d="M3238.016,111c8.045,13.154,10.396,21.518,7.371,26.297c-0.91,1.448-3.166,3.825-7.982,3.333
					c-8.1-0.826-20.844-9.797-30.299-21.339c-6.072-7.402-7.775-16.788-4.234-23.362c2.293-4.256,6.508-6.51,11.311-6.021l0,0
					C3219.523,90.45,3227.982,94.557,3238.016,111z M3239.191,133.382c0-0.026,1.652-3.689-7.426-18.553
					c-9.529-15.6-16.432-17.422-18.322-17.626l0,0c-1.871-0.187-3.229,0.526-4.131,2.209c-1.768,3.298-1.152,9.598,3.461,15.229
					c8.902,10.856,20.105,18.159,25.369,18.691C3238.826,133.406,3239.217,133.321,3239.191,133.382z"/>
			</g>
		</g>
		<g>
			<g>
				<path fill="#4D4D4D" d="M3273.062,157.606l-1.873,2.054c-33.273,36.712-70.945,78.322-155.221,106.038
					c-87.025,28.612-140.129,111.841-140.648,112.683l6.215,3.899c0.5-0.818,52.266-81.841,136.703-109.616
					c86.137-28.328,124.518-70.692,158.383-108.074l1.854-2.062L3273.062,157.606z"/>
			</g>
		</g>
	</g>
</g>
</svg>
